<svg width="24" height="16" viewBox="0 0 24 16" fill="none" xmlns="http://www.w3.org/2000/svg">
<path d="M22.3605 0.804688H1.63802C0.836919 0.804688 0.1875 1.45411 0.1875 2.25521V14.4573C0.1875 15.2584 0.836919 15.9078 1.63802 15.9078H22.3605C23.1616 15.9078 23.811 15.2584 23.811 14.4573V2.25521C23.811 1.45411 23.1616 0.804688 22.3605 0.804688Z" fill="url(#paint0_linear_2_7147)"/>
<path fill-rule="evenodd" clip-rule="evenodd" d="M6.48802 8.2121L6.59322 7.79688C6.99737 7.67508 7.82228 7.61971 7.9773 8.05708C8.06588 8.31176 7.81121 9.36919 7.76138 9.67923L7.3683 9.68477C7.27972 9.57404 7.35169 9.77888 7.29079 9.5076C6.91432 9.84532 6.11155 9.78996 6.17245 9.10899C6.23335 8.43355 6.8202 8.52214 7.45688 8.42248C7.44581 7.99065 6.90325 8.10691 6.48249 8.20657L6.48802 8.2121ZM9.44996 8.14567C9.0901 8.14567 9.03474 8.06816 8.71917 8.20657C8.75792 8.59964 8.96276 8.44463 9.24512 8.63286C9.78214 8.98719 9.20636 10.0834 7.92747 9.61279L7.99944 9.21418C8.3593 9.28615 8.542 9.35812 8.81882 9.2031C8.88526 8.64394 7.89425 9.00933 8.17107 8.11245C8.32055 7.62525 8.97937 7.69169 9.52193 7.74151L9.44443 8.14567H9.44996ZM3.93578 7.29861L4.78283 7.32629L4.87142 8.65501L5.33093 7.59203C5.48595 7.21003 5.38076 7.29307 6.35515 7.30414L5.91778 9.67923L5.44166 9.67369L5.70187 7.9685L4.99875 9.68477L4.42851 9.66816C4.4119 9.33598 4.38422 8.16781 4.29564 7.94636L4.00775 9.67369L3.50948 9.66816L3.93578 7.29861ZM12.0133 12.3422L12.2458 12.0654C11.7808 12.0045 11.6977 12.1374 11.4873 11.7609L12.5558 11.7498C12.6223 11.6391 12.733 11.5339 12.7884 11.4066C11.5704 11.3235 11.2271 11.6336 11.0334 11.1021H12.9877L13.2036 10.7644L10.7898 10.7533L10.679 10.4709L13.2811 10.4599C13.4306 10.3768 13.4306 10.2827 13.4693 10.1111L11.0057 10.1055C10.5628 10.1111 10.5351 10.2107 10.452 9.80657H13.5524L13.652 9.46331L12.7441 9.45224L12.6998 9.68477L12.1794 9.66262L12.506 7.73044L12.9988 7.79688C12.9988 7.80795 13.0098 7.8467 13.0098 7.86331C13.0098 7.87439 13.0154 7.89099 13.0154 7.89653L13.043 7.99618C13.1814 7.83009 13.27 7.7083 13.5911 7.71937L13.425 8.16781C13.3309 8.28961 13.0541 8.1512 12.9379 8.48338L13.4804 8.50553C13.5413 8.15674 13.6077 8.05155 13.7074 7.7692L13.7129 7.60311L10.3192 7.60864L10.3081 7.73044C10.4908 7.73044 10.4853 7.69722 10.5904 7.7858L10.5406 8.11245C10.1974 8.19549 10.2084 7.99065 10.1752 8.43909C10.225 8.52214 10.1641 8.47785 10.2693 8.50553L10.4853 8.51106C10.834 7.37612 11.8749 7.62525 12.1129 7.97958C12.2403 8.16781 12.3676 8.78788 12.052 8.83771L10.9946 8.84878C11.0444 9.40795 11.6866 9.29169 12.1019 9.15328C12.0853 9.3858 12.1019 9.57404 11.8859 9.65155C11.7143 9.71245 11.3545 9.69584 11.1662 9.65155C10.7012 9.54636 10.5019 9.31383 10.4686 8.81003L10.2693 8.80449C10.0866 8.72144 10.2306 8.80449 10.1365 8.5775C10.059 9.04255 9.84858 9.34151 10.4244 9.27508C10.3911 9.55189 10.4299 9.64601 10.1254 9.67923C9.23958 9.78442 9.52747 9.19203 9.67142 8.40034C9.8984 7.13805 9.72124 7.29307 10.3635 7.30414L13.6631 7.30968L13.5967 6.96643L10.4077 6.95535L10.4686 6.67854L13.4859 6.66193C13.4084 6.19134 13.3918 6.3076 12.2956 6.3076C11.7365 6.3076 11.1828 6.3076 10.6237 6.3076C10.7399 5.90345 10.679 6.01418 11.7641 6.01418H13.2313L13.0763 5.66539L10.9503 5.65985L11.0943 5.37196L12.8714 5.36089C12.6444 4.89584 12.6555 5.02871 11.3988 5.00657C11.5593 4.60795 11.8417 4.7076 12.3344 4.7076C12.196 4.48615 12.0963 4.50276 12.0133 4.31452C11.8084 4.20933 11.6257 4.0211 11.4209 3.87715C9.85411 2.76989 7.72816 2.65362 6.02297 3.48407C4.48941 4.22594 2.98353 5.94221 3.00014 8.31729C3.02228 11.7111 6.00083 14.1858 9.37245 13.61C10.9558 13.3387 11.3545 12.6965 12.0077 12.3367L12.0133 12.3422Z" fill="#E41D2C"/>
<path fill-rule="evenodd" clip-rule="evenodd" d="M15.6319 7.77943C17.3482 7.43064 17.0658 8.2777 16.9274 8.9642C16.8831 9.16905 16.8831 9.5732 16.7226 9.68392C16.6838 9.68392 16.4568 9.68946 16.4347 9.67839C16.2797 9.61749 16.3517 9.80019 16.3295 9.51783C15.8645 9.78358 15.1281 9.84448 15.2167 9.10261C15.2887 8.51022 15.8866 8.4161 16.4956 8.44379C16.4735 8.00642 16.0748 8.07839 15.5212 8.2168L15.6375 7.77943H15.6319ZM17.326 7.7296L17.7856 7.73514C17.7911 7.74621 17.7966 7.76282 17.7966 7.77389L17.8686 7.97873C17.9517 7.8514 18.1067 7.74067 18.3503 7.73514L18.2838 8.12821L18.0568 8.2168C17.6029 8.36628 17.6305 8.93652 17.5087 9.68392H16.9939L17.326 7.7296ZM19.7676 7.30884H20.2382L19.834 9.68946C19.3081 9.695 19.4354 9.72268 19.2693 9.52337C18.926 10.0327 17.8963 9.56213 18.2119 8.51022C18.4444 7.72406 19.2305 7.51368 19.6181 7.97873L19.7731 7.3033L19.7676 7.30884ZM12.0222 4.31922C12.1053 4.50745 12.2105 4.49084 12.3433 4.7123C11.8506 4.7123 11.5683 4.60711 11.4077 5.01126C12.6645 5.03341 12.6534 4.90053 12.8804 5.36559L11.1032 5.37666L10.9593 5.66455L13.0852 5.67008L13.2402 6.01887C12.753 6.01887 12.2658 6.01887 11.7731 6.01887C10.6935 6.01887 10.7489 5.91368 10.6326 6.3123H12.3046C13.4008 6.3123 13.4174 6.19603 13.4949 6.66662L10.4776 6.68323L10.4167 6.96005L13.6056 6.97112L13.6721 7.31437L10.3724 7.30884L10.3281 7.61887L13.7219 7.61334L13.7164 7.77943C13.971 7.53583 13.9267 7.40849 14.4029 7.27008C14.7959 7.15936 15.0451 7.2424 15.4326 7.32545L15.3496 7.83479C14.6852 7.63548 14.2534 7.68531 14.0984 8.37181C13.9267 9.10815 14.5081 9.38496 15.1226 9.09154C15.0672 9.62856 14.9786 9.76143 14.3475 9.67839C13.9101 9.62302 13.7773 9.41264 13.5835 9.15244H12.7918L12.7475 9.45693L13.6555 9.46801L13.5558 9.81126H10.4555C10.5385 10.2154 10.5662 10.1158 11.0091 10.1102L13.4728 10.1158C13.4285 10.2818 13.434 10.3815 13.2845 10.4645L10.6825 10.4756L10.7932 10.758L13.207 10.769L12.9911 11.1068H11.0368C11.2305 11.6327 11.5738 11.3282 12.7918 11.4113C12.7364 11.5386 12.6257 11.6438 12.5593 11.7545L11.4908 11.7656C11.6956 12.1365 11.7842 12.0092 12.2492 12.0701L12.0167 12.3469C12.8084 12.9282 13.4229 13.4154 14.7018 13.6369C15.8645 13.8362 17.0769 13.6147 18.0126 13.1552C22.0651 11.1566 21.9544 5.3988 17.9793 3.4943C16.551 2.81334 14.6575 2.75244 13.1793 3.52752C12.4651 3.89846 12.2935 4.1642 12.0278 4.32475L12.0222 4.31922Z" fill="#F8B02B"/>
<path fill-rule="evenodd" clip-rule="evenodd" d="M3.50781 9.67606L4.00608 9.6816L4.29397 7.95427C4.38255 8.17572 4.41023 9.34388 4.42684 9.67606L4.99709 9.69267L5.7002 7.97641L5.43999 9.6816L5.91612 9.68714L6.35349 7.31205C5.37909 7.30098 5.48428 7.21793 5.32927 7.59994L4.86975 8.66292L4.78117 7.3342L3.93411 7.30651L3.50781 9.67606Z" fill="#FEFEFE"/>
<path fill-rule="evenodd" clip-rule="evenodd" d="M18.9307 9.23524C18.5155 8.80894 18.8698 8.10029 19.2574 8.19441C19.6394 8.28852 19.5674 9.22416 18.9307 9.23524ZM19.6062 7.97849C19.2186 7.51344 18.438 7.72382 18.2 8.50998C17.8844 9.55634 18.9141 10.0325 19.2574 9.52313C19.4235 9.72243 19.2961 9.68922 19.8221 9.68922L20.2263 7.30859H19.7557L19.6006 7.98403L19.6062 7.97849Z" fill="#FEFEFE"/>
<path fill-rule="evenodd" clip-rule="evenodd" d="M15.8092 9.24067C15.7317 8.86974 16.075 8.7258 16.4016 8.79223C16.4182 9.1687 16.1525 9.37355 15.8092 9.24067ZM15.632 7.78462L15.5158 8.22199C16.0694 8.08912 16.4736 8.01715 16.4902 8.44898C15.8812 8.4213 15.2833 8.51542 15.2113 9.1078C15.1172 9.84967 15.859 9.78877 16.3241 9.52303C16.3462 9.80538 16.2743 9.62268 16.4293 9.68358C16.4514 9.69465 16.6784 9.68912 16.7172 9.68912C16.8833 9.58393 16.8833 9.17424 16.922 8.96939C17.066 8.27735 17.3428 7.43583 15.6265 7.78462H15.632Z" fill="#FEFEFE"/>
<path fill-rule="evenodd" clip-rule="evenodd" d="M7.36607 8.77631C7.37714 8.96455 7.34392 9.10849 7.22213 9.20261C7.13908 9.26351 6.88995 9.33548 6.79029 9.24136C6.48026 8.95901 7.06157 8.77078 7.36053 8.77631H7.36607ZM6.48579 8.21161C6.90655 8.11195 7.44912 7.99569 7.46019 8.42752C6.82351 8.52718 6.23666 8.4386 6.17576 9.11403C6.10932 9.795 6.91209 9.85036 7.2941 9.51264C7.355 9.78392 7.28303 9.57908 7.37161 9.68981L7.76469 9.68427C7.81451 9.3687 8.06918 8.3168 7.9806 8.06213C7.82559 7.61922 7.00621 7.67458 6.59652 7.80192L6.49133 8.21714L6.48579 8.21161Z" fill="#FEFEFE"/>
<path fill-rule="evenodd" clip-rule="evenodd" d="M11.0777 8.4892C11.1497 8.20685 11.2715 8.09059 11.5982 8.13488C11.7144 8.30097 11.7144 8.25114 11.7366 8.4892H11.0777ZM10.4909 8.51689L10.4688 8.81585C10.502 9.31965 10.7068 9.54664 11.1663 9.65737C11.3546 9.70166 11.7144 9.71827 11.8861 9.65737C12.102 9.5854 12.0854 9.39163 12.102 9.1591C11.6867 9.29751 11.0445 9.41377 10.9947 8.8546L12.0521 8.84353C12.3677 8.7937 12.2404 8.17917 12.113 7.9854C11.875 7.63107 10.8341 7.38194 10.4854 8.51689H10.4909Z" fill="#FEFEFE"/>
<path fill-rule="evenodd" clip-rule="evenodd" d="M13.7114 7.78C13.6117 8.06235 13.5453 8.16754 13.4844 8.51633V8.82083L13.5785 9.15855C13.7723 9.41875 13.9051 9.62913 14.3425 9.6845C14.9736 9.76754 15.0622 9.63467 15.1176 9.09765C14.4975 9.39107 13.9217 9.11426 14.0934 8.37792C14.2539 7.68588 14.6858 7.64159 15.3446 7.8409L15.4276 7.33156C15.0401 7.25405 14.7909 7.171 14.3979 7.27619C13.9217 7.40907 13.966 7.54194 13.7114 7.78554V7.78Z" fill="#FEFEFE"/>
<path fill-rule="evenodd" clip-rule="evenodd" d="M9.51634 7.74275C8.97378 7.69846 8.31495 7.62648 8.16547 8.11368C7.88866 9.01057 8.87412 8.64517 8.81322 9.20434C8.53087 9.35936 8.35371 9.28738 7.99385 9.21541L7.92188 9.61403C9.20077 10.0846 9.77101 8.99396 9.23952 8.6341C8.95717 8.44586 8.75232 8.60642 8.71357 8.2078C9.02914 8.06385 9.07897 8.1469 9.44437 8.1469L9.52187 7.74275H9.51634Z" fill="#FEFEFE"/>
<path fill-rule="evenodd" clip-rule="evenodd" d="M10.1425 8.58182L10.1812 8.44895C10.2144 8.00051 10.2034 8.20535 10.5466 8.12231L10.5964 7.79566C10.4912 7.70708 10.4968 7.7403 10.3141 7.7403L10.3252 7.6185L10.3694 7.30846C9.72723 7.29739 9.90439 7.14237 9.6774 8.40466C9.53346 9.19635 9.24557 9.78874 10.1314 9.68355C10.4303 9.65033 10.3971 9.55622 10.4303 9.2794C9.8601 9.34583 10.0705 9.04687 10.1425 8.58182Z" fill="#FEFEFE"/>
<path fill-rule="evenodd" clip-rule="evenodd" d="M12.7467 9.46013L12.791 9.15563L12.8463 8.82345L12.946 8.49127C13.0678 8.15909 13.3446 8.2975 13.4332 8.1757L13.5993 7.72726C13.2726 7.71619 13.184 7.83799 13.0512 8.00408L13.0235 7.90442C13.0235 7.89889 13.0179 7.88228 13.0179 7.87121C13.0179 7.86013 13.0069 7.81584 13.0069 7.80477L12.5141 7.73833L12.1875 9.67051L12.7079 9.69266L12.7522 9.46013H12.7467Z" fill="#FEFEFE"/>
<path fill-rule="evenodd" clip-rule="evenodd" d="M16.9844 9.68479H17.4993C17.6211 8.93739 17.5934 8.36715 18.0474 8.21767L18.2743 8.12908L18.3408 7.73601C18.0972 7.74154 17.9422 7.85227 17.8591 7.9796L17.7871 7.77476C17.7816 7.76369 17.7816 7.74708 17.7761 7.73601L17.3166 7.73047L16.9844 9.68479Z" fill="#FEFEFE"/>
<path fill-rule="evenodd" clip-rule="evenodd" d="M18.9375 9.23684C19.5797 9.22577 19.6517 8.29013 19.2641 8.19601C18.8711 8.10189 18.5223 8.81054 18.9375 9.23684Z" fill="#F8B02B"/>
<path fill-rule="evenodd" clip-rule="evenodd" d="M7.36963 8.77746C7.07067 8.77193 6.48935 8.96016 6.79939 9.24251C6.89904 9.3311 7.14818 9.25912 7.23122 9.20376C7.35302 9.11518 7.3807 8.9657 7.37516 8.77746H7.36963Z" fill="#E41D2C"/>
<path fill-rule="evenodd" clip-rule="evenodd" d="M12.7891 9.15249L13.5808 9.15803L13.4866 8.82031H12.8444L12.7891 9.15249Z" fill="#E41D2C"/>
<path fill-rule="evenodd" clip-rule="evenodd" d="M15.8081 9.24322C16.1569 9.37055 16.4171 9.17125 16.4005 8.79477C16.0683 8.73388 15.7306 8.87782 15.8081 9.24322Z" fill="#F8B02B"/>
<path fill-rule="evenodd" clip-rule="evenodd" d="M12.8438 8.82046H13.486V8.51596L12.9434 8.48828L12.8438 8.82046Z" fill="#F8B02B"/>
<path fill-rule="evenodd" clip-rule="evenodd" d="M11.0781 8.48847H11.7369C11.7203 8.25595 11.7148 8.30024 11.5985 8.13415C11.2719 8.08986 11.1501 8.20612 11.0781 8.48847Z" fill="#E41D2C"/>
<path fill-rule="evenodd" clip-rule="evenodd" d="M10.1406 8.58372C10.2347 8.81071 10.0908 8.72767 10.2735 8.81071L10.4728 8.81625L10.495 8.51728L10.279 8.51175C10.1683 8.4896 10.2292 8.52836 10.1849 8.44531L10.1462 8.57818L10.1406 8.58372Z" fill="#F8B02B"/>
<defs>
<linearGradient id="paint0_linear_2_7147" x1="11.999" y1="0.806791" x2="11.999" y2="15.9111" gradientUnits="userSpaceOnUse">
<stop stop-color="#1D4C80"/>
<stop offset="1" stop-color="#173A63"/>
</linearGradient>
</defs>
</svg>
